<svg xmlns="http://www.w3.org/2000/svg" width="118" height="13" viewBox="0 0 118 13" fill="none">
  <path d="M2.70732 6.38679C-0.908868 5.54345 10.3629 -0.22202 13.4605 2.93856C15.3297 4.84573 16.6915 6.60639 18.8585 7.04858C19.9781 7.27705 20.7639 7.8467 21.9095 7.32722C22.8997 6.8782 23.8724 5.82176 24.8965 5.75984C26.644 5.65418 28.8022 6.60811 30.4438 7.50138C31.2944 7.96429 31.4777 8.74277 32.1933 9.52155C33.8147 11.2862 36.0082 10.7755 37.8686 10.7755C39.9928 10.7755 41.0474 10.1226 42.9678 8.68562C43.5933 8.21763 44.6766 7.20237 45.3361 7.04858C46.4131 6.79739 47.485 6.38679 48.5791 6.38679C49.9477 6.38679 50.4109 7.55289 51.6515 8.26765C55.6677 10.5817 60.0305 9.21682 64.1115 7.50138C66.3897 6.54376 68.7215 5.17345 70.7683 3.39136C71.9942 2.324 73.5573 5.58555 74.2887 6.59578C75.9294 8.86215 78.2096 5.57749 79.6653 4.85425C81.6044 3.89078 82.8789 6.30423 84.5085 7.50138C85.7471 8.41129 87.6204 7.0837 88.733 6.38679C91.3143 4.76976 94.0206 4.22166 96.6272 2.76441C98.2614 1.85075 98.9957 1.8219 100.382 3.60034C100.953 4.33283 101.636 6.08679 102.366 6.35196C107.22 8.11264 111.489 0.222942 116 5.13289" stroke="#006DBA" stroke-width="3" stroke-linecap="round"/>
</svg>