<svg xmlns="http://www.w3.org/2000/svg" width="118" height="13" viewBox="0 0 118 13" fill="none">
  <path d="M115.293 6.38679C118.909 5.54345 107.637 -0.22202 104.539 2.93856C102.67 4.84573 101.308 6.60639 99.1415 7.04858C98.0219 7.27705 97.2361 7.8467 96.0905 7.32722C95.1003 6.8782 94.1276 5.82176 93.1035 5.75984C91.356 5.65418 89.1978 6.60811 87.5562 7.50138C86.7056 7.96429 86.5223 8.74277 85.8067 9.52155C84.1853 11.2862 81.9918 10.7755 80.1314 10.7755C78.0072 10.7755 76.9526 10.1226 75.0322 8.68562C74.4067 8.21763 73.3234 7.20237 72.6639 7.04858C71.5869 6.79739 70.515 6.38679 69.4209 6.38679C68.0523 6.38679 67.5891 7.55289 66.3485 8.26765C62.3323 10.5817 57.9695 9.21682 53.8885 7.50138C51.6103 6.54376 49.2785 5.17345 47.2317 3.39136C46.0058 2.324 44.4427 5.58555 43.7113 6.59578C42.0706 8.86215 39.7904 5.57749 38.3347 4.85425C36.3956 3.89078 35.1211 6.30423 33.4915 7.50138C32.2529 8.41129 30.3796 7.0837 29.267 6.38679C26.6857 4.76976 23.9794 4.22166 21.3728 2.76441C19.7386 1.85075 19.0043 1.8219 17.6177 3.60034C17.0467 4.33283 16.3645 6.08679 15.6335 6.35196C10.7802 8.11264 6.51142 0.222942 1.99999 5.13289" stroke="#006DBA" stroke-width="3" stroke-linecap="round"/>
</svg>