<svg width="82" height="223" viewBox="0 0 82 223" fill="none" xmlns="http://www.w3.org/2000/svg">
<g clip-path="url(#clip0_0_22)">
<path d="M-29.7822 -1.66234e-05C-40.3458 0.00179963 -50.8561 1.49524 -61 4.43593L-61 63.4596C-51.7106 57.4316 -40.8643 54.2281 -29.7822 54.239C-14.5572 54.239 0.0442167 60.2718 10.8099 71.0103C21.5756 81.7488 27.6237 96.3134 27.6237 111.5C27.6185 126.683 21.5682 141.243 10.803 151.977C0.0379116 162.711 -14.5605 168.742 -29.7822 168.742C-40.8643 168.752 -51.7106 165.549 -61 159.521L-61 218.564C-50.8551 221.498 -40.3449 222.985 -29.7822 222.981C-0.13905 222.981 28.2902 211.236 49.2529 190.33C70.2156 169.424 81.9949 141.068 82 111.5C82 81.9283 70.223 53.5679 49.2598 32.6575C28.2965 11.7472 -0.135695 -1.79193e-05 -29.7822 -1.66234e-05Z" fill="#97C09E"/>
</g>
<defs>
<clipPath id="clip0_0_22">
<rect width="223" height="143" fill="white" transform="translate(-61 223) rotate(-90)"/>
</clipPath>
</defs>
</svg>
