<svg width="235" height="145" viewBox="0 0 235 145" fill="none" xmlns="http://www.w3.org/2000/svg">
<path d="M2.5 72.5C2.5 33.8401 33.8401 2.5 72.5 2.5H367.5V142.5H72.5C33.8401 142.5 2.5 111.16 2.5 72.5Z" stroke="#97AAC0" stroke-width="5"/>
<path d="M13.5 72.5C13.5 39.9152 39.9152 13.5 72.5 13.5H356.5V131.5H72.5C39.9152 131.5 13.5 105.085 13.5 72.5Z" stroke="#97AAC0" stroke-width="5"/>
<path d="M24.5 72.5C24.5 45.9903 45.9903 24.5 72.5 24.5H345.5V120.5H72.5C45.9903 120.5 24.5 99.0097 24.5 72.5Z" stroke="#97AAC0" stroke-width="5"/>
<path d="M35.5 72.5C35.5 52.0655 52.0655 35.5 72.5 35.5H334.5V109.5H72.5C52.0655 109.5 35.5 92.9345 35.5 72.5Z" stroke="#97AAC0" stroke-width="5"/>
<path d="M46.5 72.5C46.5 58.1406 58.1406 46.5 72.5 46.5H323.5V98.5H72.5C58.1406 98.5 46.5 86.8594 46.5 72.5Z" stroke="#97AAC0" stroke-width="5"/>
<path d="M57.5 72.5C57.5 64.2157 64.2157 57.5 72.5 57.5H312.5V87.5H72.5C64.2157 87.5 57.5 80.7843 57.5 72.5Z" stroke="#97AAC0" stroke-width="5"/>
<path d="M68.5 72.5C68.5 70.2909 70.2909 68.5 72.5 68.5H301.5V76.5H72.5C70.2909 76.5 68.5 74.7091 68.5 72.5Z" stroke="#97AAC0" stroke-width="5"/>
</svg>
